{
    "asset" : {
        "generator" : "Khronos glTF Blender I/O v3.2.43",
        "version" : "2.0"
    },
    "scene" : 0,
    "scenes" : [
        {
            "name" : "Scene",
            "nodes" : [
                0
            ]
        }
    ],
    "nodes" : [
        {
            "mesh" : 0,
            "name" : "TableTime",
            "scale" : [
                0.44999998807907104,
                0.3819616436958313,
                0.44999998807907104
            ]
        }
    ],
    "materials" : [
        {
            "doubleSided" : true,
            "name" : "blackTable",
            "pbrMetallicRoughness" : {
                "baseColorFactor" : [
                    0,
                    0,
                    0,
                    1
                ],
                "metallicFactor" : 0,
                "roughnessFactor" : 0.13636362552642822
            }
        }
    ],
    "meshes" : [
        {
            "name" : "Plane.001",
            "primitives" : [
                {
                    "attributes" : {
                        "POSITION" : 0,
                        "NORMAL" : 1,
                        "TEXCOORD_0" : 2
                    },
                    "indices" : 3,
                    "material" : 0
                }
            ]
        }
    ],
    "accessors" : [
        {
            "bufferView" : 0,
            "componentType" : 5126,
            "count" : 1732,
            "max" : [
                1,
                0.5181719660758972,
                1
            ],
            "min" : [
                -1,
                -0.005440711975097656,
                -1
            ],
            "type" : "VEC3"
        },
        {
            "bufferView" : 1,
            "componentType" : 5126,
            "count" : 1732,
            "type" : "VEC3"
        },
        {
            "bufferView" : 2,
            "componentType" : 5126,
            "count" : 1732,
            "type" : "VEC2"
        },
        {
            "bufferView" : 3,
            "componentType" : 5123,
            "count" : 2604,
            "type" : "SCALAR"
        }
    ],
    "bufferViews" : [
        {
            "buffer" : 0,
            "byteLength" : 20784,
            "byteOffset" : 0
        },
        {
            "buffer" : 0,
            "byteLength" : 20784,
            "byteOffset" : 20784
        },
        {
            "buffer" : 0,
            "byteLength" : 13856,
            "byteOffset" : 41568
        },
        {
            "buffer" : 0,
            "byteLength" : 5208,
            "byteOffset" : 55424
        }
    ],
    "buffers" : [
        {
            "byteLength" : 60632,
            "uri" : "table.bin"
        }
    ]
}
